<svg xmlns="http://www.w3.org/2000/svg" width="14.4" height="14.4" viewBox="0 0 14.4 14.4">
  <path id="calendar-lines-alt-svgrepo-com" d="M5.978,8.211h7.444M5.978,11.189H9.7M5.978,3V4.489M13.422,3V4.489M5.382,16.4h8.636a3.7,3.7,0,0,0,1.569-.162,1.489,1.489,0,0,0,.651-.651,3.7,3.7,0,0,0,.162-1.569V6.871A3.7,3.7,0,0,0,16.238,5.3a1.489,1.489,0,0,0-.651-.651,3.7,3.7,0,0,0-1.569-.162H5.382a3.7,3.7,0,0,0-1.569.162,1.489,1.489,0,0,0-.651.651A3.7,3.7,0,0,0,3,6.871v7.147a3.7,3.7,0,0,0,.162,1.569,1.489,1.489,0,0,0,.651.651A3.7,3.7,0,0,0,5.382,16.4Z" transform="translate(-2.5 -2.5)" fill="none" stroke="#7d7d7d" stroke-linecap="round" stroke-linejoin="round" stroke-width="1"/>
</svg>
