<svg xmlns="http://www.w3.org/2000/svg" width="10.894" height="10.894" viewBox="0 0 10.894 10.894">
  <g id="Group_37265" data-name="Group 37265" transform="translate(-1333.286 -894)">
    <path id="Path_51404" data-name="Path 51404" d="M76.759,5.263l-.879.881a.423.423,0,0,1-.6,0L73.336,4.2a.424.424,0,0,1,0-.6l.88-.881a.756.756,0,0,1,1.068,0L76.76,4.195a.755.755,0,0,1,0,1.068Z" transform="translate(1267.2 891.502)"/>
    <path id="Path_51405" data-name="Path 51405" d="M35.816,19.621l-5.263,5.261a.245.245,0,0,1-.119.065l-2.847.652a.245.245,0,0,1-.294-.294l.652-2.847a.25.25,0,0,1,.065-.119l5.263-5.261a.424.424,0,0,1,.6,0l1.944,1.944a.424.424,0,0,1,0,.6Z" transform="translate(1306 879.289)"/>
  </g>
</svg>
