<svg xmlns="http://www.w3.org/2000/svg" xmlns:xlink="http://www.w3.org/1999/xlink" width="172.757" height="74.781" viewBox="0 0 172.757 74.781">
  <defs>
    <linearGradient id="linear-gradient" x1="0.5" y1="-0.016" x2="0.5" y2="1.018" gradientUnits="objectBoundingBox">
      <stop offset="0" stop-color="#00f2fd"/>
      <stop offset="0.471" stop-color="#29a0ec"/>
      <stop offset="1" stop-color="#524ddb"/>
    </linearGradient>
    <linearGradient id="linear-gradient-2" x1="0.5" y1="-0.022" x2="0.5" y2="1.4" xlink:href="#linear-gradient"/>
    <linearGradient id="linear-gradient-3" x1="0.5" y1="0.002" x2="0.5" y2="1.032" gradientUnits="objectBoundingBox">
      <stop offset="0" stop-color="#f4ca00"/>
      <stop offset="1" stop-color="#da344b"/>
    </linearGradient>
    <linearGradient id="linear-gradient-4" x1="0.5" y1="-0.022" x2="0.5" y2="1.4" xlink:href="#linear-gradient"/>
    <linearGradient id="linear-gradient-6" x1="0.5" y1="-0.021" x2="0.5" y2="1.4" xlink:href="#linear-gradient"/>
    <linearGradient id="linear-gradient-10" x1="0.597" y1="0.002" x2="0.597" y2="1.032" xlink:href="#linear-gradient-3"/>
    <linearGradient id="linear-gradient-11" x1="0.5" y1="-0.025" x2="0.5" y2="0.984" xlink:href="#linear-gradient"/>
  </defs>
  <g id="Group_38091" data-name="Group 38091" transform="translate(-129 -69.905)">
    <text id="Your_Complete_Drone_Ecosystem" data-name="Your Complete Drone Ecosystem" transform="translate(138 141.686)" fill="#fff" font-size="10" font-family="Lexend"><tspan x="0" y="0">your complete drone ecosystem</tspan></text>
    <g id="Layer_x0020_1" transform="translate(129 69.906)">
      <path id="Path_169972" data-name="Path 169972" d="M13839.4,17077.8Z" transform="translate(-13714.622 -17026.688)"/>
      <path id="Path_169973" data-name="Path 169973" d="M9706.177,14271.535q-7.494,0-11.681-4.049t-4.187-11.354v-17.172h-10.983v11.539h-7.042a13.547,13.547,0,0,1-8.672,3.131h-.095a13.555,13.555,0,0,1-5.317-1.123v19.027h10.981v-12.006h10.145v12.006h26.852Z" transform="translate(-9581.398 -14220.422)" fill="url(#linear-gradient)"/>
      <path id="Path_169974" data-name="Path 169974" d="M13414.929,14261.057a5.034,5.034,0,0,0,7.283,0q1.326-1.56,1.326-5.282v-16.845h-9.958v16.845Q13413.58,14259.5,13414.929,14261.057Z" transform="translate(-13293.688 -14220.391)" fill="url(#linear-gradient-2)"/>
      <path id="Path_169975" data-name="Path 169975" d="M13885.875,14257.7a9.434,9.434,0,0,0-4.28-3.095c-.078-.029-.161-.055-.24-.084a8.69,8.69,0,0,0,3.125-2.638,7.546,7.546,0,0,0-1.837-10.517q-3.212-2.4-9.959-2.4h-17.4v17.171c0,4.871-1.4,8.842-4.188,11.541s-6.687,3.862-11.681,3.862h34.2q6.746,0,10.261-2.374a7.539,7.539,0,0,0,3.514-6.607,7.9,7.9,0,0,0-1.513-4.863Zm-19.8-11.052h5.119a4.811,4.811,0,0,1,2.723.605,2.318,2.318,0,0,1,0,3.606,4.668,4.668,0,0,1-2.723.628h-5.119Zm9.331,16.566h0a4.665,4.665,0,0,1-2.722.651h-6.609v-5.119h6.609a4.664,4.664,0,0,1,2.722.652,2.459,2.459,0,0,1,0,3.815Z" transform="translate(-13714.632 -14220.432)" fill="url(#linear-gradient-3)"/>
      <path id="Path_169976" data-name="Path 169976" d="M9145.31,13303.235a11.376,11.376,0,1,0,11.376-11.376A11.376,11.376,0,0,0,9145.31,13303.235Zm11.376-9.449a9.449,9.449,0,1,0,9.45,9.449A9.449,9.449,0,0,0,9156.686,13293.786Z" transform="translate(-9074.394 -13284.188)" fill="#fff" fill-rule="evenodd"/>
      <path id="Path_169977" data-name="Path 169977" d="M12806.977,12623.3c.644,0,1.165.862,1.165,1.926h-2.331C12805.811,12624.161,12806.333,12623.3,12806.977,12623.3Z" transform="translate(-12692.893 -12623.299)" fill="#fff" fill-rule="evenodd"/>
      <path id="Path_169978" data-name="Path 169978" d="M7510.9,12818.973c4.53-.105,14.224-.531,15.806,3.275a13.993,13.993,0,0,0-1.494,6.311h2.025a12.03,12.03,0,0,1,24.06,0h2.025a14,14,0,0,0-1.493-6.311c1.581-3.807,11.275-3.381,15.806-3.275a14.966,14.966,0,0,0,1.785,1.035,8.02,8.02,0,0,1-1.421-3.93c-16.892.543-20.249-4.406-28.731-4.406s-11.839,4.949-28.73,4.406a8.026,8.026,0,0,1-1.421,3.93A15,15,0,0,0,7510.9,12818.973Zm19.781-4.094a57.134,57.134,0,0,1,17.173,0A25.85,25.85,0,0,0,7530.676,12814.879Z" transform="translate(-7456.97 -12809.511)" fill="#fff" fill-rule="evenodd"/>
      <path id="Path_169979" data-name="Path 169979" d="M7265.826,12623.3c.643,0,1.166.862,1.166,1.926h-2.331C7264.66,12624.161,7265.182,12623.3,7265.826,12623.3Z" transform="translate(-7215.324 -12623.299)" fill="#fff" fill-rule="evenodd"/>
      <path id="Path_169980" data-name="Path 169980" d="M7148.37,12839.744h-1.359c0,4.3.646,6.153,2.515,7.777,1.869-1.624,2.515-3.481,2.515-7.777h-1.359v-1.135h-2.312Z" transform="translate(-7099.025 -12836.139)" fill="#fff" fill-rule="evenodd"/>
      <path id="Path_169981" data-name="Path 169981" d="M12691.78,12839.744h1.359c0,4.3-.646,6.153-2.516,7.777-1.869-1.624-2.515-3.481-2.515-7.777h1.358v-1.135h2.313Z" transform="translate(-12576.542 -12836.139)" fill="#fff" fill-rule="evenodd"/>
      <path id="Path_169982" data-name="Path 169982" d="M11837.875,12648.7c2.16,3.976,13.121,0,9.969,0h-9.969Zm-3.8,0c-2.16,3.976-13.121,0-9.969,0h9.969Z" transform="translate(-11721.889 -12648.409)" fill-rule="evenodd" fill="url(#linear-gradient-4)"/>
      <path id="Path_169983" data-name="Path 169983" d="M6296.707,12648.7c2.16,3.976,13.121,0,9.969,0h-9.969Zm-3.806,0c-2.16,3.976-13.121,0-9.969,0h9.969Z" transform="translate(-6244.303 -12648.409)" fill-rule="evenodd" fill="url(#linear-gradient-4)"/>
      <path id="Path_169984" data-name="Path 169984" d="M8280.795,13016.834h-.975c0,3.081.463,4.413,1.8,5.578,1.341-1.165,1.8-2.5,1.8-5.578h-.975v-.814h-1.659Z" transform="translate(-8218.836 -13011.514)" fill="#fff" fill-rule="evenodd"/>
      <path id="Path_169985" data-name="Path 169985" d="M11680.265,13016.834h-.975c0,3.081.463,4.413,1.8,5.578,1.34-1.165,1.8-2.5,1.8-5.578h-.975v-.814h-1.659Z" transform="translate(-11579.298 -13011.514)" fill="#fff" fill-rule="evenodd"/>
      <path id="Path_169986" data-name="Path 169986" d="M11125.262,12917.2c1.438,2.644,8.727,0,6.631,0h-6.631Zm-2.529,0c-1.437,2.644-8.727,0-6.629,0h6.629Z" transform="translate(-11022.202 -12913.829)" fill-rule="evenodd" fill="url(#linear-gradient-6)"/>
      <path id="Path_169987" data-name="Path 169987" d="M11776.4,12887c.385,0,.7.516.7,1.152h-1.4C11775.7,12887.516,11776.012,12887,11776.4,12887Z" transform="translate(-11674.601 -12883.975)" fill="#fff" fill-rule="evenodd"/>
      <path id="Path_169988" data-name="Path 169988" d="M7725.854,12917.2c1.437,2.644,8.726,0,6.629,0h-6.629Zm-2.531,0c-1.437,2.644-8.726,0-6.629,0h6.629Z" transform="translate(-7661.799 -12913.829)" fill-rule="evenodd" fill="url(#linear-gradient-6)"/>
      <path id="Path_169989" data-name="Path 169989" d="M8377,12887c.385,0,.7.516.7,1.152h-1.4C8376.3,12887.516,8376.611,12887,8377,12887Z" transform="translate(-8314.208 -12883.975)" fill="#fff" fill-rule="evenodd"/>
      <path id="Path_169990" data-name="Path 169990" d="M2965.09,14269.5h9.2v-12.423h10.927v-7.312h-10.927v-5.55h11.333v-7.313H2965.09Z" transform="translate(-2965.09 -14218.385)" fill="url(#linear-gradient-2)"/>
      <path id="Path_169991" data-name="Path 169991" d="M5228.38,14269.5h20.735v-7.313h-11.13V14236.9h-9.605Z" transform="translate(-5202.41 -14218.385)" fill="url(#linear-gradient-2)"/>
      <path id="Path_169992" data-name="Path 169992" d="M6763.242,14269.539h9.6v-11.85l5.952-11.094a15.051,15.051,0,0,1-3.063-9.121c0-.178,0-.357.01-.533h-2.085l-5.642,13.084-5.59-13.084H6752.01l11.232,20.748Z" transform="translate(-6708.556 -14218.426)" fill-rule="evenodd" fill="url(#linear-gradient-10)"/>
      <path id="Path_169993" data-name="Path 169993" d="M9640.2,13734.632a5.8,5.8,0,1,1-7.893,2.212A5.8,5.8,0,0,1,9640.2,13734.632Z" transform="translate(-9555.063 -13721.145)" fill="url(#linear-gradient-11)"/>
    </g>
  </g>
</svg>
