<svg xmlns="http://www.w3.org/2000/svg" width="110.771" height="55.805" viewBox="0 0 110.771 55.805">
  <g id="Layer_x0020_1" transform="translate(-1137.96 -916.315)">
    <g id="_2708442476944" transform="translate(1137.96 916.315)">
      <g id="Group_37713" data-name="Group 37713" transform="translate(24.842 0)">
        <path id="Path_168046" data-name="Path 168046" d="M1528.907,950.43c.074-.227.044-.126.238-.272l.8-.629a4.209,4.209,0,0,1,1.132-.7A8.3,8.3,0,0,1,1528.907,950.43Zm-.486,1.228c.52-.215,2.551-2.044,3.182-2.49l1.565-1.234c1.63-1.342.942-1.128,1.255-1.572,1.518.614.435,1.2.042,1.5-.305.239-.562.421-.846.651l-3.363,2.623a9.577,9.577,0,0,1-1.729,1.189c-.165-.027-3.006-2.3-3.412-2.617-.879-.682-3.327-2.151-2.8-3.062.195.138.123.233.287.43.3.369,5.569,4.2,5.814,4.579Zm.219-6.917a1.64,1.64,0,0,1,1.8.952,1.3,1.3,0,0,1-1.284,1.492c-.862.092-1.747-.336-1.859-1.015C1527.159,945.342,1527.931,944.862,1528.64,944.741Zm.116-1.214c-.05-.489.048-1.273.041-1.821-.006-.52-.143-1.4.608-1.146l-.062,2.785Zm-.33-2.748c-.069.209-.078.112-.119.154-.177-.132-.24-.214-.188-.525l.316.071C1528.457,940.648,1528.49,940.587,1528.426,940.779Zm1.223-.1c-.084-.34,0-.307,0-.332l.372-.039a1.034,1.034,0,0,1-.215.665C1529.676,940.863,1529.7,940.89,1529.649,940.683Zm.248,1.153c.084-.239,0-.08.493-.389a1.593,1.593,0,0,0,.48-.433,4.458,4.458,0,0,0,.14-1.619c-.222,0-.509.4-.815.554a2.047,2.047,0,0,1-2.927-.638s-.779,1.513.144,2.119c.159.1.452.181.568.341-.139.225-3.94,2.9-4.68,3.453-.718.534-1.877,1.218-2.065,2.035-.281,1.22,1.034,1.89,1.623,2.369l3.424,2.693c.554.406.9.628.925,1.093.085,1.414-.307,5.4-.216,5.859a1,1,0,0,0,1.336.6c.633-.187.789-.534.82-1.251l.228-3.829c.033-.493-.031-1.423.282-1.721a24.511,24.511,0,0,1,2.3-1.8c.778-.575,1.507-1.182,2.277-1.757.642-.479,1.941-1.193,2.058-2.042a1.567,1.567,0,0,0-.6-1.373l-5.18-3.932A5.338,5.338,0,0,1,1529.9,941.835Z" transform="translate(-1498.848 -936.478)" fill="#172830" fill-rule="evenodd"/>
        <path id="Path_168047" data-name="Path 168047" d="M1631.481,987.463l1.052-1.313c.314-.376.087-.309.709-.448.367-.081.715,0,1.1-.062l8.2-.284c.2-.009,2.475-.195,2.626-.119-.169.305-.528.5-.744.711l-1.548,1.314c-.44.363-6.913.216-6.972.187a8.618,8.618,0,0,1-2.017.1c-.347,0-.695-.01-1.042-.006l-1.057.106a24.926,24.926,0,0,1,3.348.962c2.622.808,1.106.313,2.522.234a3.477,3.477,0,0,1,.98.1,33.6,33.6,0,0,0,4.1-.015.938.938,0,0,0,.767-.323l1.661-1.462c.166-.153.4-.316.611-.5s.353-.275.58-.461l4.629-3.9a14.191,14.191,0,0,0,1.113-.968c.422-.416,2.172-1.675,2.286-1.947-2.007.144-4.15.1-6.185.119-2.067.022-4.123.089-6.182.089s-4.174,0-6.22.081c-1.032.039-5.4.059-6.011.212.11.238-.047.032.2.209l.675.494a4.371,4.371,0,0,1,.738.807c1.9.047,18.134-.2,18.3-.124a13.321,13.321,0,0,1-2.192,1.9c-.477.144-15.632.894-16.638.949-.2.384-1.055,1.38-1.479,1.954a5.278,5.278,0,0,0-.477.685Z" transform="translate(-1593.308 -971.615)" fill="#172830" fill-rule="evenodd"/>
        <path id="Path_168048" data-name="Path 168048" d="M1360.021,980.677l-.59-.426c-.362-.307-1.008-.19-1.783-.181a2.527,2.527,0,0,1-.667.02c-.087-.025.074-.007-.18-.076a46.481,46.481,0,0,1-5.05.025,15.9,15.9,0,0,1-2.6-2.471l4.64.323c.649.043,4.164.228,4.476.361.182.078.007-.031.14.095.98.219.664-.606,1.964,1.226l.478.63c.307.138.174.172.516.023.415-.18,1.464-.57,1.691-.731a12.343,12.343,0,0,0-.759-1.463c-.231-.472-.435-1.134-.678-1.518-3.338-.181-6.708-.44-10.023-.736-.861-.078-4.469-.127-4.89-.5l-2.773-2.61c.232-.147,4.322.273,4.994.314l10.284.719c3.427.217,1.7.382,3.6-.943.394-.275.308-.137.371-.35-.682-.254-15.549-1.164-17.669-1.332-1.309-.1-4.8-.523-5.808-.538.1.24,3.884,3.875,4.125,4.1.64.6,1.513,1.435,2.122,2.043l2.1,2.06c.35.319.72.638,1.038.979.426.456.65.626,1.073,1.011.372.337.57.825,1.228.836.7.011,1.393,0,2.087.017a15.135,15.135,0,0,1,1.986.1c.789.2,0,.528,1.443.069,1-.319,2.093-.825,3.105-1.074Z" transform="translate(-1339.71 -963.854)" fill="#172830" fill-rule="evenodd"/>
        <path id="Path_168049" data-name="Path 168049" d="M1484.009,917.731c-1.032.134-3.764-1.354-11.264,1.62-.453.18-1.075.315-1.284.693.2.385,1.077.383,1.521.416,2.513.193,6.207.131,8.468-.864a20.457,20.457,0,0,1,2.54-1.3,1.486,1.486,0,0,0,.518.829,1.816,1.816,0,0,0,2.074-.124c.32-.262.315-.448.587-.771.51-.037,2.033.953,2.624,1.208,2.444,1.054,9.7.962,10.214.021-.4-.648-4.68-1.659-5.748-1.886a19.44,19.44,0,0,0-3.512-.369,10.282,10.282,0,0,0-1.81.116,8.328,8.328,0,0,1-1.773.193c-.117-.458-.148-.719-.491-.941a1.757,1.757,0,0,0-2.146.244c-.261.287-.289.6-.517.915Z" transform="translate(-1455.237 -916.315)" fill="#172830" fill-rule="evenodd"/>
        <path id="Path_168050" data-name="Path 168050" d="M1482.347,1056.98c.015-.02.076-.111.095-.139.412-.028,1.324-.125,1.6.128l.768.916a10.178,10.178,0,0,1,.8.9c.4.371.657.8.767.869.405.137,1.258,1.345,1.612,1.7a10.558,10.558,0,0,1,1.516,1.875c.653.58.757,1.214,1.725,1.01a1.042,1.042,0,0,0,.486-.227l1.97-2.322a1.871,1.871,0,0,0,.139-.18l.345-.384c.261-.234.086-.135.278-.427l.819-.99c.043-.351.122-.2.284-.462l.962-1.177a3.564,3.564,0,0,1,.326-.374,9.911,9.911,0,0,0,.65-.791c.158-.183.143-.278.4-.373.146-.167.24-.432.456-.527.477,0,1.038.03,1.421.059l3.848-.185c.415-.007.954.1,1.176-.133-.08-.106.022-.02-.108-.087l-.417-.107c-1.437-.336-7.777-1.941-8.139-1.841-.1.475.851.871.844,1.255l-5.846,7.2c-.335-.1-.678-.653-.942-.922l-3.073-3.5c-.159-.22-.266-.281-.426-.485-.952-1.21-1.5-1.324-.69-2.22.555-.617.9-.325.656-.942a14.315,14.315,0,0,0-1.847.529l-5.567,1.453c-.073.1-.019-.025-.06.138l-.012.552c.786.028,1.811-.033,2.6.021C1482.265,1056.824,1482.038,1056.792,1482.347,1056.98Z" transform="translate(-1461.989 -1036.786)" fill="#172830" fill-rule="evenodd"/>
        <path id="Path_168051" data-name="Path 168051" d="M1520.582,1072.9a1.228,1.228,0,0,1-.287.477c-.107.137-.2.249-.323.4-.51.626-.222.089-.655.779a14.352,14.352,0,0,1-1.362,1.523l-.819.99c-.192.292-.017.193-.278.427l-.345.384a1.834,1.834,0,0,1-.139.18l-1.97,2.322a1.042,1.042,0,0,1-.486.227c-.968.2-1.073-.43-1.725-1.01-.219-.108-.032,0-.2-.129s-.156-.192-.251-.331l-.793-.9a4.266,4.266,0,0,1-.385-.405,18.3,18.3,0,0,1-1.5-1.81c-.11-.074-.372-.5-.767-.869a10.178,10.178,0,0,0-.8-.9l-.768-.916c-.276-.254-1.187-.156-1.6-.128-.019.028-.08.12-.095.139a1.724,1.724,0,0,0,.509.718l.517.655c.107.113.191.151.3.282l6.074,7.006c.305.325.677.963,1.244,1.054a7.516,7.516,0,0,0,1.191-1.3l3.053-3.583c.581-.811,1.806-2.186,2.443-3.027l.975-1.17a.928.928,0,0,1,.116-.142,5.8,5.8,0,0,0,1-1.409c-.383-.03-.944-.059-1.421-.059-.215.095-.309.36-.456.527Z" transform="translate(-1484.682 -1053.154)" fill="#480090" fill-rule="evenodd"/>
        <path id="Path_168052" data-name="Path 168052" d="M1369.566,1124.535a1.382,1.382,0,0,0-1.255-1.144c-1-.18-2.168,1.129-1.5,2.147a1.4,1.4,0,0,0,1.244.422l3.234-.06c1.25,0,1.51-.1,2.277-.115,1.455-.026,2.768,0,4.2-.06.793-.033,1.582-.049,2.373-.052.575,0,1.75.095,1.842-.516.127-.835-.964-.816-1.651-.793l-2.067.054C1375.367,1124.469,1372.471,1124.582,1369.566,1124.535Z" transform="translate(-1363.3 -1097.878)" fill="#480090" fill-rule="evenodd"/>
        <path id="Path_168053" data-name="Path 168053" d="M1623.34,1076.812a2.77,2.77,0,0,0-.9-.014c-.589.028-.649-.222-1.356.678l-2.29,2.721c-.153.186-.382.4-.494.545l-1.845,2.193c-.622.733-1.294,1.162-.8,1.768a.658.658,0,0,0,.747.195c.549-.175.65-.456,1.064-.953l2.3-2.715c.32-.411.564-.688.912-1.107l1.835-2.2A3.814,3.814,0,0,0,1623.34,1076.812Z" transform="translate(-1581.525 -1057.01)" fill="#480090" fill-rule="evenodd"/>
        <path id="Path_168054" data-name="Path 168054" d="M1475.419,1091.54c.336.4,1.462,1.973,2.2,1.018a.609.609,0,0,0-.023-.722l-3.811-4.191c-.283-.271-1.562-2.053-2.048-2.192a7.751,7.751,0,0,0-1.686.111,6.168,6.168,0,0,0,1.089,1.341l1.552,1.7c.394.411.555.547.923.964l1.358,1.5c.155.186.288.276.447.463Z" transform="translate(-1454.001 -1064.608)" fill="#480090" fill-rule="evenodd"/>
        <path id="Path_168055" data-name="Path 168055" d="M1684.938,1082.57c-1.063.094-2.129.014-3.214.071a24.93,24.93,0,0,0-3.091.145c-.235.095-.69.643.486.623.5-.009,1.1-.064,1.629-.065l3.141-.044c.271-.018.555-.038.829-.044.842-.016.481.2,1.111.6,1.319.851,3.615-.958,2.12-2.445a1.869,1.869,0,0,0-2.43.132A2.6,2.6,0,0,0,1684.938,1082.57Z" transform="translate(-1636.649 -1060.743)" fill="#480090" fill-rule="evenodd"/>
        <path id="Path_168056" data-name="Path 168056" d="M1647.338,1114.764c.071-.14.107-.421.174-.6.645-1.715,3.556-1.869,4.023-.192.217.781-.234.762.683.777.462.006.867,0,1.305-.018s.959-.039.8-.537c-.305-.356-1.18-.064-1.712-.127-.481-.919.011-.952-1.37-1.888a3.432,3.432,0,0,0-4.179,1.018c-.209.271-.337.734-.486.825-.622.256-2.527-.387-2.543.64.3.214.191.224.7.22l2.606-.122Z" transform="translate(-1606.558 -1087.756)" fill="#480090" fill-rule="evenodd"/>
        <path id="Path_168057" data-name="Path 168057" d="M1630.436,1048.226c1.713.693,2.747-1.694,1.087-2.26a1.5,1.5,0,0,0-1.12.05c-.506.264-.172.369-.883.138-.922-.3-7.583-2.359-8.015-2.336a1.609,1.609,0,0,0-.405.589c.419.227,7.648,1.83,8.734,2.08C1629.814,1046.712,1629.261,1047.75,1630.436,1048.226Z" transform="translate(-1586.451 -1028.118)" fill="#172830" fill-rule="evenodd"/>
        <path id="Path_168058" data-name="Path 168058" d="M1718.787,938.064c-.454.249-1.671-.26-1.657.616.321.309.7.227,1.205.2.186-.01,1.3-.048,1.389-.086.345-.145.075-.715.318-1.12.037-.064.287-.379.31-.4a4.008,4.008,0,0,1,.449-.331,2.558,2.558,0,0,1,2.3-.142c.249.087,1.209.989,2,.147,1.01-1.08-.575-2.383-1.752-1.164-.323.335-.523.03-1.065-.057a3.361,3.361,0,0,0-3.289,1.75C1718.925,937.691,1718.95,937.922,1718.787,938.064Z" transform="translate(-1670.656 -932.953)" fill="#480090" fill-rule="evenodd"/>
        <path id="Path_168059" data-name="Path 168059" d="M1390.275,1079.219c-.26-.478-.4-.864-.97-1.05a1.406,1.406,0,0,0-1.591,2c.332.484.742.475,1.4.456.669-.022,1.361-.039,2.02-.038.448,0,1.609.08,1.768-.241.245-.5-.374-1.113-.739-1.178A13.233,13.233,0,0,0,1390.275,1079.219Z" transform="translate(-1381.647 -1058.184)" fill="#480090" fill-rule="evenodd"/>
        <path id="Path_168060" data-name="Path 168060" d="M1456.679,1050.325c.638-.025,5.86-1.634,7.286-2.093l.436-.162a1.728,1.728,0,0,0-.339-.52L1457.01,1050c-.905.355-.956-.589-1.925-.169a1.151,1.151,0,1,0,.885,2.122c.688-.3.767-.759.708-1.624Z" transform="translate(-1440.2 -1031.39)" fill="#172830" fill-rule="evenodd"/>
        <path id="Path_168061" data-name="Path 168061" d="M1652.261,967.711c-.151.025-3.831,0-4.316.132-.6.163-.991.978.171.989a18.389,18.389,0,0,0,2.2-.018c.794-.148.159.038.925-.07.473-.068,2.428.052,3.072-.1.948-.229.844-.894.044-1A12,12,0,0,0,1652.261,967.711Z" transform="translate(-1609.485 -961.302)" fill="#480090" fill-rule="evenodd"/>
        <path id="Path_168062" data-name="Path 168062" d="M1529.52,1029.16c.132.26.207.512.372.819l1.39,2.321a11.188,11.188,0,0,0,1.119,1.354,6.567,6.567,0,0,0,1.256,1.212c.072-.614.036-1.25.06-1.88.037-.911-.012-.852-.59-1.3a19.819,19.819,0,0,0-2.182-1.634c.148.248.3.3.35.583-.428-.042-1.519-1.185-1.776-1.478Z" transform="translate(-1506.148 -1015.265)" fill="#172830" fill-rule="evenodd"/>
        <path id="Path_168063" data-name="Path 168063" d="M1593.88,1032.077a9.838,9.838,0,0,0,1.34-1.181,5.984,5.984,0,0,0,1.23-1.308c.891-1.33,1.066-1.646,2.069-2.948l-2.956,2.06C1593.53,1030.185,1594.194,1029.539,1593.88,1032.077Z" transform="translate(-1562.583 -1013.055)" fill="#172830" fill-rule="evenodd"/>
        <path id="Path_168064" data-name="Path 168064" d="M1649.72,1032.042l.314.185,1.057-.106c.347,0,.694,0,1.042.006a8.618,8.618,0,0,0,2.017-.1c-.139-.095-.515-.682-.746-.882a7.567,7.567,0,0,0-.85-.782c0-.132-.018-.053.032-.144-.389.064-.738-.02-1.1.062-.622.139-.4.073-.709.448Z" transform="translate(-1611.547 -1016.194)" fill="#480090" fill-rule="evenodd"/>
        <path id="Path_168065" data-name="Path 168065" d="M1415.008,951.374c-.262-.372-.553-.824-1.251-.68a1.321,1.321,0,0,0-1.008,1.029c-.135.543.629.435,1.451.39l4.533-.134c.224-.089.4-.443.121-.617S1415.334,951.414,1415.008,951.374Z" transform="translate(-1403.741 -946.437)" fill="#480090" fill-rule="evenodd"/>
        <path id="Path_168066" data-name="Path 168066" d="M1610.6,1073.514c-.346-.078-.388.135-.6.331a19.276,19.276,0,0,0-1.331,1.469l-3.383,4.038a6.327,6.327,0,0,1-.863,1.021c-1.141,1.033-.489,1.581.006.851l2.552-3.043a1.822,1.822,0,0,0,.2-.255,2.272,2.272,0,0,1,.22-.235l1.45-1.809a1.122,1.122,0,0,0,.124-.138l1.149-1.389C1610.65,1073.607,1610.672,1073.89,1610.6,1073.514Z" transform="translate(-1571.275 -1054.143)" fill="#480090" fill-rule="evenodd"/>
        <path id="Path_168067" data-name="Path 168067" d="M1478.51,1035.643c.254.069.092.052.18.076a2.522,2.522,0,0,0,.667-.02c.774-.009,1.421-.125,1.783.181l.59.426a2.663,2.663,0,0,0,.448-.188c.294-.132.262-.051.384-.287l-.478-.63c-1.3-1.832-.984-1.007-1.964-1.226a4.758,4.758,0,0,0-.856.793C1479.028,1034.994,1478.586,1035.263,1478.51,1035.643Z" transform="translate(-1461.419 -1019.484)" fill="#480090" fill-rule="evenodd"/>
        <path id="Path_168068" data-name="Path 168068" d="M1472.951,969.578c.968.406,2.665.107,3.662.19.742.062,1.842-.153,1.4-.836-.229-.357-.928-.219-1.341-.22l-2.991.044C1473.141,968.791,1472.852,969.037,1472.951,969.578Z" transform="translate(-1456.528 -962.237)" fill="#480090" fill-rule="evenodd"/>
        <path id="Path_168069" data-name="Path 168069" d="M1418.57,1003.21l.011-.369c-.619-.144-5.741-.276-6.832-.33a58.14,58.14,0,0,0-6.93-.164c1.262.238,8.563.612,10.247.672C1416.177,1003.06,1417.5,1003.253,1418.57,1003.21Z" transform="translate(-1396.803 -991.687)" fill="#172830" fill-rule="evenodd"/>
        <path id="Path_168070" data-name="Path 168070" d="M1496.36,1086.319c-.13-.134-.145-.192-.262-.326l-1.757-1.867c-1.106-.079-.166.614.089.931.371.459.416.372.665.7a2.351,2.351,0,0,0,.313.341c.349.361,1.494,1.808,1.9,2.134a4.393,4.393,0,0,1,.678.691c.5.5.4.525.829.432.03-.579-.678-1-1.013-1.421Z" transform="translate(-1474.839 -1063.457)" fill="#480090" fill-rule="evenodd"/>
        <path id="Path_168071" data-name="Path 168071" d="M1647.4,1004.752c1.688.018,3.543-.119,5.236-.19,1.319-.055,3.317-.174,4.62-.167a1.874,1.874,0,0,0,.657-.06c-3.317-.065-6.57-.048-9.9-.015C1647.457,1004.32,1647.535,1004.2,1647.4,1004.752Z" transform="translate(-1609.512 -993.457)" fill="#172830" fill-rule="evenodd"/>
        <path id="Path_168072" data-name="Path 168072" d="M1441.61,1110.238c.3.385,1.149.24,1.725.224.41-.01,1.728.156,1.6-.405-.1-.437-1.271-.259-1.766-.236C1442.694,1109.842,1441.708,1109.686,1441.61,1110.238Z" transform="translate(-1429.063 -1085.945)" fill="#480090" fill-rule="evenodd"/>
        <path id="Path_168073" data-name="Path 168073" d="M1540.858,1105.611a10.558,10.558,0,0,0-1.516-1.875c-.353-.351-1.207-1.559-1.612-1.7a18.284,18.284,0,0,0,1.5,1.81,4.266,4.266,0,0,0,.385.405l.793.9c.095.139.09.2.251.331S1540.638,1105.5,1540.858,1105.611Z" transform="translate(-1513.347 -1079.171)" fill="#361369" fill-rule="evenodd"/>
        <path id="Path_168074" data-name="Path 168074" d="M1609.93,1079.827a14.364,14.364,0,0,0,1.362-1.523c.433-.691.145-.154.655-.779.122-.149.215-.261.323-.4a1.229,1.229,0,0,0,.287-.477c-.261.095-.246.19-.4.373a9.916,9.916,0,0,1-.65.791,3.565,3.565,0,0,0-.326.374l-.962,1.177c-.163.264-.241.111-.285.462Z" transform="translate(-1576.656 -1056.907)" fill="#361369" fill-rule="evenodd"/>
      </g>
      <g id="Group_37714" data-name="Group 37714" transform="translate(0 38.804)">
        <path id="Path_168075" data-name="Path 168075" d="M1137.96,1250.342h4.007V1244.1h4.759v-3.674h-4.759v-2.789h4.936v-3.676h-8.943Zm12.392,0h9.032v-3.674h-4.848V1233.96h-4.184Zm13.589,0h4.184v-5.955l4.848-10.427h-4.494l-2.457,6.575-2.436-6.575h-4.537l4.892,10.427Z" transform="translate(-1137.96 -1233.651)" fill="#480090"/>
        <path id="Path_168076" data-name="Path 168076" d="M1437.742,1248.141h4.183v-12.706h3.21v-3.676H1434.51v3.676h3.232Zm10.113-16.382v9.9c0,2.414.287,3.565,1.638,5.047a6.6,6.6,0,0,0,4.715,1.75,6.127,6.127,0,0,0,4.583-1.772c1.04-1.061,1.638-2.279,1.638-5.025v-9.9h-4.184v9.9c0,1.307,0,3.122-2.081,3.122-2.059,0-2.125-2.015-2.125-3.122v-9.9Zm18.548,16.382h4.183v-12.706h3.21v-3.676h-10.625v3.676h3.232Zm9.758-11.49a9.246,9.246,0,0,0-.643,3.5,8.444,8.444,0,1,0,.643-3.5Zm3.541,3.255a4.56,4.56,0,0,1,4.472-4.781c3.011,0,4.449,2.723,4.449,4.848,0,2.1-1.438,4.8-4.4,4.8A4.6,4.6,0,0,1,1479.7,1239.906Zm16.445,8.235h4.007v-5.291h.043l3.786,5.291h4.781l-4.45-5.578a4.972,4.972,0,0,0,4.073-5.158,5.674,5.674,0,0,0-2.014-4.472c-1.063-.819-2.168-1.173-5.047-1.173h-5.179Zm4.007-12.706h1.527c1.616,0,2.7.73,2.7,2.213,0,.8-.287,2.347-2.745,2.347h-1.483Z" transform="translate(-1397.994 -1231.45)" fill="#2b2a29"/>
      </g>
    </g>
  </g>
</svg>
