<svg xmlns="http://www.w3.org/2000/svg" width="17.909" height="17.082" viewBox="0 0 17.909 17.082">
  <g id="Layer_x0020_1" transform="translate(-1637.372 -3124.95)">
    <path id="Path_70164" data-name="Path 70164" d="M1648.2,3140.745h-7.878v-7.878a2.634,2.634,0,0,0,1.911-.936c.294.2.109.235.841.641a2.676,2.676,0,0,0,2.853-.261c.158-.117.268-.252.4-.341a2.845,2.845,0,0,0,2.067.9,2.6,2.6,0,0,0,1.989-.936c.256.172.219.326.819.624a2.556,2.556,0,0,0,1.131.312v7.878H1648.2Zm-7.878-9.165a1.38,1.38,0,0,1-.976-.272c-.565-.4-.466-.672-.194-1.21l1.69-3.458c.1-.2.151-.442.416-.442h10.14c.3,0,.47.55.689.988l.572,1.144.572,1.144c.554,1.108.839,1.247.106,1.822a1.471,1.471,0,0,1-2.252-.651c-.043-.116-.064-.242-.114-.354a.633.633,0,0,0-1.121-.027,5.692,5.692,0,0,1-.251.646,1.454,1.454,0,0,1-2.594-.281,2.355,2.355,0,0,0-.1-.326.633.633,0,0,0-1.148,0c-.1.208-.05.323-.244.614a1.452,1.452,0,0,1-2.437.016c-.248-.363-.147-.992-.84-.992-.5,0-.558.386-.642.645A1.429,1.429,0,0,1,1640.32,3131.581Zm-2.691-.936a1.932,1.932,0,0,0,.484,1.232c.412.529.92.634.92.8v8.073h-1.014a.649.649,0,1,0,.117,1.287h16.38a.649.649,0,1,0,.117-1.287h-1.014v-8.073c0-.137.186-.146.469-.35.093-.067.141-.125.234-.2a.765.765,0,0,0,.211-.218c.073-.095.114-.121.179-.211a2.81,2.81,0,0,0,.169-.26c.48-.849-.1-1.7-.442-2.392l-1.534-3.068a2.075,2.075,0,0,0-.464-.667,1.49,1.49,0,0,0-.81-.36h-10.608a1.508,1.508,0,0,0-.79.341,1.654,1.654,0,0,0-.459.672c-.217.493-.5,1.009-.753,1.509l-.559,1.118c-.076.151-.11.248-.182.4-.128.277-.241.472-.366.765A2.181,2.181,0,0,0,1637.629,3130.644Z" transform="translate(0 0)" fill-rule="evenodd"/>
  </g>
</svg>
