<svg xmlns="http://www.w3.org/2000/svg" width="270.605" height="212.199" viewBox="0 0 270.605 212.199">
  <g id="Group_38114" data-name="Group 38114" transform="translate(-80 -243)">
    <g id="Group_38113" data-name="Group 38113">
      <g id="Group_38112" data-name="Group 38112">
        <g id="Group_38111" data-name="Group 38111">
          <g id="Group_38097" data-name="Group 38097" transform="translate(80 243)">
            <path id="Path_170231" data-name="Path 170231" d="M16731.059,11258.482c0,42.009-47.771,76.063-106.7,76.063s-106.705-34.054-106.705-76.062,47.771-76.062,106.705-76.062S16731.059,11216.475,16731.059,11258.482Z" transform="translate(-16517.652 -11157.407)" fill="#f6f6f6"/>
            <path id="Path_170232" data-name="Path 170232" d="M19856.41,14364.777c0,3.73-21.811,6.756-48.711,6.756s-48.709-3.025-48.709-6.756,21.807-6.758,48.709-6.758S19856.41,14361.045,19856.41,14364.777Z" transform="translate(-19585.805 -14163.333)" fill="#dfdfeb"/>
            <path id="Path_170233" data-name="Path 170233" d="M17288.9,14412.743c0,4.14-39.4,7.5-88,7.5s-87.992-3.356-87.992-7.5,39.4-7.493,87.992-7.493S17288.9,14408.606,17288.9,14412.743Z" transform="translate(-17081.098 -14208.04)" fill="#dfdfeb"/>
            <path id="Path_170234" data-name="Path 170234" d="M18828.967,12053.059s-1.627,9.451-13.5,21.617c0,0-1.309-1.622.959-8.348S18828.289,12050.771,18828.967,12053.059Z" transform="translate(-18692.342 -11981.177)" fill="#7e9e6e"/>
            <g id="Group_38095" data-name="Group 38095" transform="translate(123.042 71.882)">
              <path id="Path_170235" data-name="Path 170235" d="M18834.1,12059.6a37.775,37.775,0,0,0-13.49,21.619,21.207,21.207,0,0,0,1.094,8.947" transform="translate(-18820.521 -12059.6)" fill="none" stroke="#000" stroke-linecap="round" stroke-linejoin="round" stroke-width="1"/>
            </g>
            <path id="Path_170236" data-name="Path 170236" d="M18141.375,11849.572s3-2.27-2.16-7.937c-4.893-5.387-10.072-10.215-20.205-11.984,0,0,3.059,13.721,9.658,16.994A28.061,28.061,0,0,0,18141.375,11849.572Z" transform="translate(-18033.449 -11770.055)" fill="#7e9e6e"/>
            <path id="Path_170237" data-name="Path 170237" d="M18073.555,12281.4s10.57,2.306,28.494-3.678c0,0-1.109-1.852-9.121-2.475S18071.469,12279.855,18073.555,12281.4Z" transform="translate(-17990.217 -12191.792)" fill="#7e9e6e"/>
            <path id="Path_170238" data-name="Path 170238" d="M18077.4,12312.2a47.236,47.236,0,0,1,28.492-3.676,6.726,6.726,0,0,1,3.283,2.619" transform="translate(-17994.064 -12222.6)" fill="none" stroke="#000" stroke-linecap="round" stroke-width="1"/>
            <path id="Path_170239" data-name="Path 170239" d="M18237,12472.633s11.313,7.446,29.236,1.464a14.913,14.913,0,0,0-11.5-6.931C18246.729,12466.543,18234.916,12471.094,18237,12472.633Z" transform="translate(-18144.904 -12373.452)" fill="#7e9e6e"/>
            <g id="Group_38096" data-name="Group 38096" transform="translate(92.096 97.034)">
              <path id="Path_170240" data-name="Path 170240" d="M18241.3,12532.511s12.189-5.687,29.236,1.463a10.412,10.412,0,0,1,3.658,3.106" transform="translate(-18241.301 -12530.367)" fill="none" stroke="#000" stroke-linecap="round" stroke-linejoin="round" stroke-width="1"/>
            </g>
            <path id="Path_170241" data-name="Path 170241" d="M18752.979,11892.034s3.338-.4-4.807,7.135c-7.691,7.116-6.715,7.172-6.715,7.172S18744.379,11895.693,18752.979,11892.034Z" transform="translate(-18622.6 -11829.102)"/>
            <path id="Path_170242" data-name="Path 170242" d="M18637.5,11910.02s2.492.961,6.992-3.165,6.17-13.323,10.127-14.744C18654.619,11892.11,18644.7,11895.315,18637.5,11910.02Z" transform="translate(-18524.236 -11829.178)" fill="#7e9e6e"/>
            <path id="Path_170243" data-name="Path 170243" d="M18163.066,11882.533a158.336,158.336,0,0,0-21.689-32.922s-2.352-3.08-10.523-11.064-11.842-8.857-11.842-8.857" transform="translate(-18033.451 -11770.092)" fill="none" stroke="#000" stroke-linecap="round" stroke-width="1"/>
            <path id="Path_170244" data-name="Path 170244" d="M18642.9,11901.3s-9.441,4.117-15.947,17.419c-1.574,3.223.309,5.771,1.852,7.708" transform="translate(-18513.693 -11837.878)" fill="none" stroke="#000" stroke-linecap="round" stroke-width="1"/>
            <path id="Path_170245" data-name="Path 170245" d="M20085.068,13874.766s-7.889,5.821-26.066,1.548c0,0,.047-2.915,6.568-5.719S20086.1,13872.064,20085.068,13874.766Z" transform="translate(-19869.787 -13701.083)" fill="#7e9e6e"/>
            <path id="Path_170246" data-name="Path 170246" d="M19968.986,13929.75a37.8,37.8,0,0,0-25.424,1.767,21.238,21.238,0,0,0-6.6,6.142" transform="translate(-19754.268 -13756.604)" fill="none" stroke="#000" stroke-linecap="round" stroke-width="1"/>
            <path id="Path_170247" data-name="Path 170247" d="M19962.512,13197.243s3.6,1.092,5.164-6.409c1.484-7.122,2.352-14.154-2.16-23.394,0,0-9.318,10.53-8.092,17.793A28.1,28.1,0,0,0,19962.512,13197.243Z" transform="translate(-19773.531 -13036.366)" fill="#7e9e6e"/>
            <path id="Path_170248" data-name="Path 170248" d="M20234.324,13763.813s2.773,1.9-8.318,2.2c-10.475.287-9.773.973-9.773.973S20225.439,13760.9,20234.324,13763.813Z" transform="translate(-20018.607 -13600.128)"/>
            <path id="Path_170249" data-name="Path 170249" d="M20093.2,13756.62s1.242,2.365,7.346,2.225,13.418-5.961,17.33-4.425C20117.875,13754.42,20108.3,13750.3,20093.2,13756.62Z" transform="translate(-19902.158 -13590.734)" fill="#7e9e6e"/>
            <path id="Path_170250" data-name="Path 170250" d="M19794,13234.133a158.139,158.139,0,0,0,13.918-36.881s1.117-3.713,2.785-15.017.219-14.785.219-14.785" transform="translate(-19618.947 -13036.376)" fill="none" stroke="#000" stroke-linecap="round" stroke-width="1"/>
            <path id="Path_170251" data-name="Path 170251" d="M20016.688,13755.174s-9.816-3.119-23.469,2.605c-3.312,1.385-4.25,3.574-5.645,7.631" transform="translate(-19802.176 -13591.895)" fill="none" stroke="#000" stroke-linecap="round" stroke-width="1"/>
            <path id="Path_170252" data-name="Path 170252" d="M17298.732,12535.391a10.89,10.89,0,0,1-6.984-2.534l-5.441-4.538a10.392,10.392,0,0,0-6.664-2.509h-27a4.434,4.434,0,0,0-4.434,4.436v97.734a7.655,7.655,0,0,0,7.654,7.655h134.576a5.95,5.95,0,0,0,5.949-5.953v-88.337a5.95,5.95,0,0,0-5.949-5.954Z" transform="translate(-17209.178 -12429.018)" fill="#333869"/>
            <path id="Path_170253" data-name="Path 170253" d="M16789.8,13027.417s-9.16-17.178-10.076-19.151l-25.033-50.992a3.832,3.832,0,0,0-3.479-2.223H16658.2a19.75,19.75,0,0,1-10.867-3.94l-3.756-3.13a10.374,10.374,0,0,0-6.666-2.51h-25.689a3.838,3.838,0,0,0-3.547,5.306l31.066,75.138a11.26,11.26,0,0,0,10.406,6.959h138.977a1.764,1.764,0,0,0,1.738-1.682Z" transform="translate(-16602.582 -12826.257)" fill="#7583f0"/>
            <line id="Line_158" data-name="Line 158" x2="36.728" y2="71.399" transform="translate(149.381 133.642)" fill="none" stroke="#000" stroke-linejoin="round" stroke-width="1"/>
            <path id="Path_170258" data-name="Path 170258" d="M20231.434,12612.322c.59-2.553-2.127-5.737-4.7-5.235a17.868,17.868,0,0,0-3.471,1.022c-.656.216-5.568-.1-6.131.713-.406.595,2.154,1.277,3.791,1.44a.352.352,0,0,1,.148.653c-1.609,1-4.812,3.027-5.084,3.526-.365.673-2.031,3.284-1.561,3.575s1.887-1.016,2.809-1.942a11.546,11.546,0,0,1,3.615-1.713s-4.684,4.7-5.3,6c-.916,1.942,1.752,1.091,1.752,1.091-.418,1.1,1.768.856,2.283.442,1.023-.817,4.182-4.628,4.189-4.238s-3.26,4.538-2.928,5.507,1.654-.246,2.418-1.269,3.012-3.881,3.012-3.881a21.615,21.615,0,0,0,4.686-5.084C20230.977,12612.906,20231.424,12612.352,20231.434,12612.322Z" transform="translate(-20016.83 -12505.903)" fill="#db9c7e"/>
            <line id="Line_161" data-name="Line 161" y1="5.327" x2="4.467" transform="translate(200.585 110.121)" fill="none" stroke="#000" stroke-linecap="round" stroke-linejoin="round" stroke-width="0.5"/>
            <path id="Path_170259" data-name="Path 170259" d="M19882.166,12134.04l16.07-10.026a2.673,2.673,0,0,0,.285-.217l5.3-5.453a2.534,2.534,0,0,1,3.783.5l2.6,3.9a2.534,2.534,0,0,1,.049,2.739l-3.732,6.054a2.535,2.535,0,0,1-1.156,1c-3,1.285-14.469,6.129-21.309,8.062a2.535,2.535,0,0,1-3.2-2.663l.164-1.98A2.549,2.549,0,0,1,19882.166,12134.04Z" transform="translate(-19701.152 -12042.727)" fill="#9ec689"/>
            <path id="Path_170260" data-name="Path 170260" d="M20325.529,14298.7l-.852,5.775s-15.928,6.119-14.449,6.206,24.369-1.241,24.369-1.241l-1.352-10.485Z" transform="translate(-20107.498 -14107.183)"/>
            <path id="Path_170261" data-name="Path 170261" d="M20681.4,12549.8s1.27,12.215,2.223,12.85a8.263,8.263,0,0,0,2.219.953" transform="translate(-20458.934 -12451.728)" fill="none" stroke="#424242" stroke-width="35.28"/>
            <path id="Path_170262" data-name="Path 170262" d="M20685.842,12560.76l-2.064-13.959-2.377.158" transform="translate(-20458.934 -12448.889)" fill="none" stroke="#424242" stroke-width="35.28"/>
            <path id="Path_170263" data-name="Path 170263" d="M20599.27,12392.6s6.453,13.146,4.58,20.471l-35.787-4.923.748-13.656Z" transform="translate(-20351.648 -12302.927)"/>
            <path id="Path_170264" data-name="Path 170264" d="M20393.836,12683.6s-9.586,34.135-9.836,45.122l7.008,42.336s6.678,3.321,13.641.637c.287-.11-3.527-21.956-3.795-44.451l20.006-41.863Z" transform="translate(-20177.422 -12578.378)"/>
            <path id="Path_170265" data-name="Path 170265" d="M20806.816,12686.493l-1.4,41.191,15.76,43.063a12.946,12.946,0,0,1-14.928.5l-17.109-41.006,1.756-29.835-7.455-4.515-1.111-12.924Z" transform="translate(-20554.463 -12577.782)"/>
            <path id="Path_170266" data-name="Path 170266" d="M20581.371,12494.035l7.6,5.727,10.889-12.161-26.453,3.776,6.471,8.587Z" transform="translate(-20356.705 -12392.851)" fill="#fff"/>
            <path id="Path_170267" data-name="Path 170267" d="M21122.225,14263.637l-1.377,4.981s-10.047,10.9-8.566,10.9,17.982-6.745,17.982-6.745l-2.117-10.38Z" transform="translate(-20866.65 -14072.815)"/>
            <path id="Path_170268" data-name="Path 170268" d="M19730.863,12397.588s.211,1.068-2.154,1.885a8.125,8.125,0,0,1-3.758.558s-5.309-6.261-5.543-6.482.166-2.629,1.734-3.593c.951-.585,4.65.37,7.41,1.21a4.015,4.015,0,0,1,2.785,4.5A8.937,8.937,0,0,1,19730.863,12397.588Z" transform="translate(-19548.279 -12300.252)" fill="#db9c7e"/>
            <path id="Path_170269" data-name="Path 170269" d="M19630.406,12399.221s-4.34-.629-6.174-2.141c0,0-2.742-.553-3.322-.207a5.354,5.354,0,0,1-2.32,1.049c-1.262.213-.881-.626.443-1.816.379-.341,1.391-1.563,2.268-1.729a38.12,38.12,0,0,0,3.738-1.127l5.131,6.134Z" transform="translate(-19452.176 -12303.541)" fill="#db9c7e"/>
            <path id="Path_170270" data-name="Path 170270" d="M19657.2,12450.807a7.91,7.91,0,0,1-2.375,1.075c-.621-.031-1.2-.4-1.355-1.416,0,0-3.281.6-2.238-1.879,0,0-1.98-.322-2.035-1.614,0,0-1.758-.874-1.371-2.279s5.9-1.278,5.9-1.278l5.855,2.975Z" transform="translate(-19480.525 -12351.023)" fill="#db9c7e"/>
            <path id="Path_170271" data-name="Path 170271" d="M19756.879,12534.606s1.672-1.481,1.578-2.077-.406-.921-.785-.808a21.866,21.866,0,0,0-3.281,2.309" transform="translate(-19581.453 -12434.594)" fill="none" stroke="#1a1c2f" stroke-linecap="round" stroke-linejoin="round" stroke-width="0.5"/>
            <path id="Path_170272" data-name="Path 170272" d="M19676.492,12491.941s4.453-.7,4.5-1.355-.27-1.529-1.2-1.344a43.061,43.061,0,0,1-5.324.959" transform="translate(-19505.795 -12394.38)" fill="none" stroke="#1a1c2f" stroke-linecap="round" stroke-linejoin="round" stroke-width="0.5"/>
            <path id="Path_170273" data-name="Path 170273" d="M19794.219,12502.089s.818-.509.5-1.076-.766-.769-1.713-.521" transform="translate(-19618 -12404.954)" fill="none" stroke="#1a1c2f" stroke-linecap="round" stroke-linejoin="round" stroke-width="1"/>
            <path id="Path_170274" data-name="Path 170274" d="M19672.8,12461.451a5.825,5.825,0,0,1,.588-.641" transform="translate(-19504.223 -12367.493)" fill="none" stroke="#1a1c2f" stroke-linecap="round" stroke-linejoin="round" stroke-width="0.5"/>
            <path id="Path_170275" data-name="Path 170275" d="M19617.039,12232.638l-.078.044a1.247,1.247,0,0,1-1.7-.476l-11.576-20.582,2.25-1.265,11.574,20.582A1.247,1.247,0,0,1,19617.039,12232.638Z" transform="translate(-19438.801 -12130.424)" fill="#333869"/>
            <path id="Path_170276" data-name="Path 170276" d="M19646.531,12296l.969,1.729a.918.918,0,0,1-.266,1.265l-2.1,1.182a.92.92,0,0,1-1.221-.431l-1.014-1.8Z" transform="translate(-19475.92 -12211.488)" fill="#333869"/>
            <path id="Path_170277" data-name="Path 170277" d="M19356.307,11740.033c-4.016-7.448-9.047-12.576-12.246-12.814l.107-.708-1.672,1.091c-2.873,1.955-1.346,10.693,3.41,19.517s10.939,14.388,13.814,12.432l1.57-1.047-.451-.606C19361.943,11754.48,19360.221,11747.286,19356.307,11740.033Z" transform="translate(-19190.191 -11672.426)" fill="#333869"/>
            <path id="Path_170278" data-name="Path 170278" d="M19387.609,11732c4.756,8.822,6.285,17.561,3.412,19.518s-9.057-3.611-13.812-12.434-6.285-17.562-3.412-19.518S19382.854,11723.176,19387.609,11732Z" transform="translate(-19219.822 -11665.481)" fill="#7583f0"/>
            <path id="Path_170279" data-name="Path 170279" d="M19424.551,11788.54c3.879,7.181,5.395,14.1,3.4,15.464s-6.754-3.36-10.621-10.541-5.391-14.1-3.395-15.461S19420.684,11781.359,19424.551,11788.54Z" transform="translate(-19258.354 -11720.944)" fill="#d3ddf6"/>
            <path id="Path_170280" data-name="Path 170280" d="M19630.406,12399.221s-4.34-.629-6.174-2.141c0,0-2.742-.553-3.322-.207a5.354,5.354,0,0,1-2.32,1.049c-1.262.213-.881-.626.443-1.816.379-.341,1.391-1.563,2.268-1.729a38.12,38.12,0,0,0,3.738-1.127l5.131,6.134Z" transform="translate(-19452.176 -12303.541)" fill="#db9c7e"/>
            <path id="Path_170281" data-name="Path 170281" d="M19644.066,12461.385s-4.338-.63-6.174-2.142c0,0-2.736-.552-3.32-.206a5.355,5.355,0,0,1-2.32,1.048" transform="translate(-19465.838 -12365.705)" fill="none" stroke="#1a1c2f" stroke-linecap="round" stroke-linejoin="round" stroke-width="0.5"/>
            <path id="Path_170282" data-name="Path 170282" d="M19432.938,11788.539c-3.869-7.181-8.627-11.9-10.621-10.542a1.512,1.512,0,0,0-.406.429c2.307.14,6.342,4.522,9.709,10.768,3.564,6.613,5.133,13,3.8,15.034a1.423,1.423,0,0,0,.914-.227C19438.326,11802.642,19436.809,11795.72,19432.938,11788.539Z" transform="translate(-19266.734 -11720.941)" fill="#333869"/>
            <path id="Path_170283" data-name="Path 170283" d="M19469.523,11825.277c2.059,3.818,2.869,7.5,1.807,8.226s-3.594-1.787-5.65-5.607-2.869-7.5-1.807-8.226S19467.465,11821.456,19469.523,11825.277Z" transform="translate(-19306.014 -11760.49)" fill="#fff"/>
            <path id="Path_170284" data-name="Path 170284" d="M20256.709,11655.357l-3.193-11.392a32.243,32.243,0,0,0-5.943-11.443c-4.8-6.008-17.437-5.46-17.437-5.46l-9.719,6.992c-.025.017-.059.033-.088.05-5.721,3.157-6.771,8.027-6.621,15.534l.352,10.136,6.578-6.282,1.662,2.276c-.008-.065-.014-.126-.018-.185l.785,1.236-.768-1.052c.234,2.093,1.324,7.419,6.395,9.906l2.887,4.545-.762,6.283c27.107,9.858,33.857-9.5,33.857-9.5Z" transform="translate(-20016.213 -11578.279)" fill="#9ec689"/>
            <line id="Line_162" data-name="Line 162" x2="3.548" y2="4.339" transform="translate(203.035 74.169)" fill="none" stroke="#000" stroke-linecap="round" stroke-linejoin="round" stroke-width="0.5"/>
            <path id="Path_170285" data-name="Path 170285" d="M20383.965,12183.6a8.824,8.824,0,0,0,6.258,8.837" transform="translate(-20177.381 -12105.094)" fill="none" stroke="#000" stroke-linecap="round" stroke-linejoin="round" stroke-width="0.5"/>
            <path id="Path_170286" data-name="Path 170286" d="M20456.355,12267.7l-20.635,17.979s4.086,5.721,5.928,5.925l24.721-15.73Z" transform="translate(-20226.377 -12184.699)" fill="#9ec689"/>
            <path id="Path_170287" data-name="Path 170287" d="M20550.4,12244.025s11.234-12.667,15.117-14.506" transform="translate(-20334.934 -12148.559)" fill="none" stroke="#000" stroke-linecap="round" stroke-width="0.5"/>
            <path id="Path_170288" data-name="Path 170288" d="M20722,12012s.535,2.834,4.137,12.794" transform="translate(-20497.361 -11942.662)" fill="none" stroke="#000" stroke-linecap="round" stroke-linejoin="round" stroke-width="0.5"/>
            <path id="Path_170289" data-name="Path 170289" d="M20600.1,11919.037s23.086-14.71,23.293-19-5.82-24.209-5.82-24.209" transform="translate(-20381.973 -11813.768)" fill="none" stroke="#000" stroke-linecap="round" stroke-linejoin="round" stroke-width="0.5"/>
            <path id="Path_170290" data-name="Path 170290" d="M20647.4,12214.431s5.555.523,7.279-4.521" transform="translate(-20426.75 -12129.997)" fill="none" stroke="#000" stroke-linecap="round" stroke-width="0.5"/>
            <path id="Path_170291" data-name="Path 170291" d="M20226.3,12213.142a2.022,2.022,0,0,1,3.066.2" transform="translate(-20028.148 -12132.466)" fill="none" stroke="#000" stroke-linecap="round" stroke-width="0.5"/>
            <path id="Path_170292" data-name="Path 170292" d="M19886.1,12386.354l3.268-1.532s3.988,4.342,2.557,8.07l-3.986,1.174A7.048,7.048,0,0,0,19886.1,12386.354Z" transform="translate(-19706.123 -12295.563)" fill="#fff"/>
            <path id="Path_170293" data-name="Path 170293" d="M20409.885,12561.2a17.558,17.558,0,0,1,7.355,7.124l-3.295,2.528s-4.061-5.822-6.895-6.741Z" transform="translate(-20199.242 -12462.519)" fill="#fff"/>
            <path id="Path_170294" data-name="Path 170294" d="M20333.885,11614.9l13.529,1s.518,7.444-7.658,14.01l-3.67-3.564-2,4.342s-3.1-1.748-3.523-6.764l.66-6.088Z" transform="translate(-20126.84 -11566.78)" fill="#fff"/>
            <path id="Path_170295" data-name="Path 170295" d="M20358.8,11513.8a1.826,1.826,0,0,1,.611,1.709c-.436,2.422-1.746,8.287-4.383,9.023-3.332.932-5.408-5.648-5.408-5.648l1.66-11.492Z" transform="translate(-20144.881 -11465.012)" fill="#db9c7e"/>
            <path id="Path_170296" data-name="Path 170296" d="M20321.078,11544.72l-.041,1.674c-.031.018-.6,4.958,1.059,5.147,6.938-1.254,7.377-7.831,7.969-14.361C20330.064,11537.18,20320.4,11543.418,20321.078,11544.72Z" transform="translate(-20117.711 -11493.211)"/>
            <path id="Path_170297" data-name="Path 170297" d="M20105.789,11300.174s-1.689,16.112,8.322,18.887,12.406-13.553,12.061-19.2-2.861-7.744-9.875-8c-10.383-.373-10.506,8.311-10.506,8.311Z" transform="translate(-19913.973 -11260.991)" fill="#db9c7e"/>
            <path id="Path_170298" data-name="Path 170298" d="M20252.422,11575.388c.027.58-.25,1.065-.617,1.085s-.691-.438-.715-1.019.242-1.065.609-1.083S20252.391,11574.808,20252.422,11575.388Z" transform="translate(-20051.607 -11528.414)"/>
            <path id="Path_170299" data-name="Path 170299" d="M20232.271,11519.011s-3.309,1.438-3.633-1.062" transform="translate(-20030.361 -11475.008)" fill="none" stroke="#000" stroke-linecap="round" stroke-width="0.5"/>
            <path id="Path_170300" data-name="Path 170300" d="M20112,11537.9s-1.094,1.9-2.35,1.055" transform="translate(-19917.732 -11493.894)" fill="none" stroke="#000" stroke-linecap="round" stroke-width="0.5"/>
            <path id="Path_170301" data-name="Path 170301" d="M20120.7,11600.264a2.134,2.134,0,0,1,1.541.283" transform="translate(-19928.189 -11552.887)" fill="none" stroke="#000" stroke-linecap="round" stroke-width="0.5"/>
            <path id="Path_170302" data-name="Path 170302" d="M20304.1,11694.749a5.033,5.033,0,0,1,1.648-1.06" transform="translate(-20101.789 -11641.357)" fill="none" stroke="#000" stroke-linecap="round" stroke-width="1"/>
            <path id="Path_170303" data-name="Path 170303" d="M20175.531,11635.7a1.438,1.438,0,0,0,.887,1.934" transform="translate(-19979.984 -11586.469)" fill="none" stroke="#000" stroke-linecap="round" stroke-width="0.5"/>
            <path id="Path_170304" data-name="Path 170304" d="M20092.566,11292.645s.166-4.717,2.258-7.385c0,0,2.873,6.533,15.262,7.867l3.605-.758s1.477-7.564-3.7-10.545-13.1-1.33-15.639,1.346A8.452,8.452,0,0,0,20092.566,11292.645Z" transform="translate(-19900.863 -11249.995)"/>
            <path id="Path_170305" data-name="Path 170305" d="M20388.5,11496.124l2.143,4.231,1.518-4.755Z" transform="translate(-20181.682 -11453.854)"/>
            <path id="Path_170306" data-name="Path 170306" d="M20424.328,11489.6c-.617,2.252-2.389,3.742-3.957,3.326s-2.338-2.578-1.723-4.83,2.391-3.74,3.957-3.324S20424.945,11487.35,20424.328,11489.6Z" transform="translate(-20210.018 -11443.537)" fill="#db9c7e"/>
            <path id="Path_170307" data-name="Path 170307" d="M20450.889,11532.369s-1.762-1.518-2.729,1.257c0,0,1.031,1.093.383,1.951a1.424,1.424,0,0,0,1.516-.663" transform="translate(-20238.152 -11488.266)" fill="none" stroke="#000" stroke-linecap="round" stroke-linejoin="round" stroke-width="0.5"/>
            <path id="Path_170308" data-name="Path 170308" d="M20471.031,11536.112a2.714,2.714,0,0,0-.781-1.321" transform="translate(-20259.061 -11490.95)" fill="none" stroke="#000" stroke-linecap="round" stroke-linejoin="round" stroke-width="0.5"/>
            <path id="Path_170309" data-name="Path 170309" d="M20446.84,11610.118a1.529,1.529,0,1,1-1.529-1.527A1.53,1.53,0,0,1,20446.84,11610.118Z" transform="translate(-20234.006 -11560.807)" fill="#fff"/>
            <path id="Path_170310" data-name="Path 170310" d="M20420.8,11201.922s1.881-9.824,6.273-7.943,6.375,11.289,2.2,12.021a11.559,11.559,0,0,1-7.422-1.255Z" transform="translate(-20212.258 -11168.12)"/>
            <path id="Path_170311" data-name="Path 170311" d="M20421.7,11399.7s7.264,6.063,9.617.471" transform="translate(-20213.107 -11363.078)" fill="none" stroke="#000" stroke-linecap="round" stroke-width="1"/>
            <path id="Path_170312" data-name="Path 170312" d="M17041.549,11838.382a17.645,17.645,0,0,1,11.887,30.217,2.213,2.213,0,0,0-.633,1.94l1.309,7.735-8.041-4.686a2.183,2.183,0,0,0-1.52-.262,17.651,17.651,0,1,1-3-34.945Z" transform="translate(-16996.381 -11778.313)" fill="#d3ddf6"/>
            <path id="Path_170313" data-name="Path 170313" d="M17256.414,12033.6l-.047-4.222a8.677,8.677,0,0,0,1.684-.585,6.468,6.468,0,0,0,1.336-.837,4.908,4.908,0,0,0,.963-1.062,4.687,4.687,0,0,0,.584-1.261,5,5,0,0,0,.2-1.423,4.1,4.1,0,0,0-.527-2.023,4.053,4.053,0,0,0-1.5-1.534,4.4,4.4,0,0,0-2.324-.588,4.846,4.846,0,0,0-2.682.8,4.972,4.972,0,0,0-1.885,2.721l-.451-.3a5.316,5.316,0,0,1,1.924-2.8,5.106,5.106,0,0,1,3.068-.973,5.183,5.183,0,0,1,2.586.623,4.543,4.543,0,0,1,2.359,4.071,5.159,5.159,0,0,1-.336,1.873,5.511,5.511,0,0,1-.949,1.6,6.112,6.112,0,0,1-1.486,1.26,6.985,6.985,0,0,1-1.973.812l-.047,3.847Zm-.3,3.146h0a.824.824,0,0,1,.176-.537.678.678,0,0,1,.975-.013.9.9,0,0,1,.15.55.875.875,0,0,1-.162.523.559.559,0,0,1-.49.224.6.6,0,0,1-.486-.2A.842.842,0,0,1,17256.113,12036.75Z" transform="translate(-17212.547 -11949.781)"/>
            <path id="Path_170314" data-name="Path 170314" d="M17804.945,10726.664c-.785.313-3.844,1.782-4.32,2.009-.2-.613-.566-1.172-.809-1.028a3.66,3.66,0,0,0-.633,1.248,1.3,1.3,0,0,0-.051.179,12.077,12.077,0,0,0-1.66.547l-8.262-3.321c-.016-.095-.031-.194-.051-.3a6.909,6.909,0,0,0-.988-2.575l6.223-4.076-.008-.013a1.754,1.754,0,0,0,.2.013c.8-.015.93-.209,1-.582a15.013,15.013,0,0,0,.008-1.685,7.061,7.061,0,0,0,.547.49,8.469,8.469,0,0,0,3.141.637c.41-.025-.758-.729-2.055-1.365a10.059,10.059,0,0,0-2.043-.774c-.008-.041-.023-.082-.035-.126a2.593,2.593,0,0,0-.441-.874c-.176-.1-.43.29-.57.719-.336-.159-2.48-1.187-3.031-1.407-.594-.24-.676-.106-.223.316s1.6,1.4,2.039,1.4c.355,0,.926.026,1.129.036a.552.552,0,0,0,0,.2h0a.374.374,0,0,0-.289.377v1.521l-7.582,3.407c-.508-.28-1.465-.5-3.766-.5a10.586,10.586,0,0,0-3.863.454l-7.488-3.363v-1.521a.374.374,0,0,0-.289-.377h0a.679.679,0,0,0,0-.2c.211-.01.777-.036,1.129-.036.438,0,1.59-.98,2.039-1.4s.371-.557-.223-.316c-.551.22-2.7,1.248-3.027,1.407-.145-.429-.4-.821-.57-.719a2.634,2.634,0,0,0-.445.874.817.817,0,0,0-.031.126,9.886,9.886,0,0,0-2.043.774c-1.3.636-2.469,1.34-2.059,1.365a8.453,8.453,0,0,0,3.141-.637c.141-.11.344-.29.551-.49a13.358,13.358,0,0,0,.008,1.685c.063.373.2.567.992.582a1.754,1.754,0,0,0,.2-.013l-.008.013,6.047,3.964a10.094,10.094,0,0,0-.812,2.688c-.02.105-.039.2-.051.3l-8.258,3.321a12.063,12.063,0,0,0-1.664-.547c-.012-.056-.027-.114-.047-.179a3.66,3.66,0,0,0-.633-1.248c-.246-.144-.605.415-.809,1.028-.48-.227-3.539-1.7-4.32-2.009-.852-.341-.965-.15-.32.453s2.285,2,2.906,2c.5,0,1.309.038,1.605.054a1.105,1.105,0,0,0,0,.279.536.536,0,0,0-.414.537v2.947s.059.83,1.191.811,1.32-.3,1.414-.827a4.432,4.432,0,0,0,.039-.618l1.98-.613a16.314,16.314,0,0,0,3.254.436c.391-.027-.23-.487-1.242-1.059l7.59-2.354c.332.065.707.117,1.094.156v2.139a1.668,1.668,0,0,0,.73,1.374,2.962,2.962,0,0,0,5.418,0,1.658,1.658,0,0,0,.734-1.375v-2.138c.383-.039.762-.091,1.09-.156l7.59,2.354c-1.012.571-1.633,1.031-1.234,1.059a16.288,16.288,0,0,0,3.246-.436l1.98.613a5.144,5.144,0,0,0,.039.618c.094.53.285.809,1.414.827s1.2-.811,1.2-.811v-2.947a.536.536,0,0,0-.414-.537,1.357,1.357,0,0,0,0-.279c.3-.016,1.105-.054,1.605-.054.621,0,2.27-1.4,2.91-2S17805.793,10726.323,17804.945,10726.664Zm-11.824-7.352h0l.285.155-5.5,3.333-.492-.432Zm-21.8.155h0l.281-.155,5.563,2.983-.348.4Zm-1.148,11.094h0l-.48-.193,6.738-2.409.684.343Zm17.41-3.229h0c-.488.5-5.234.385-5.234.385s-4.746.113-5.238-.385c-.461-.469.395-3.084,1.105-3.849,0,0-1.52,3.232-.656,3.433.891.205,4.789.311,4.789.311s3.9-.105,4.785-.311c.863-.2-.656-3.433-.656-3.433C17787.2,10724.248,17788.051,10726.863,17787.586,10727.332Zm7.227,3.229h0l-6.941-2.26.684-.343,6.742,2.409Z" transform="translate(-17692.801 -10714.26)" fill="#1f3b4f"/>
            <path id="Path_170315" data-name="Path 170315" d="M18158.775,10992.739a2.147,2.147,0,1,1-2.146-2.149A2.146,2.146,0,0,1,18158.775,10992.739Z" transform="translate(-18067.027 -10975.825)" fill="#fff"/>
            <path id="Path_170316" data-name="Path 170316" d="M18171.686,11007.073a.679.679,0,0,1-.4-1.229,1.372,1.372,0,0,0-.3-.036,1.341,1.341,0,1,0,1.34,1.34,1.3,1.3,0,0,0-.066-.387A.673.673,0,0,1,18171.686,11007.073Z" transform="translate(-18081.377 -10990.231)" fill="#15aee4"/>
            <path id="Path_170317" data-name="Path 170317" d="M17514.061,13728.642l-1.908,1.572-7.678-1.141-.572-.673Z" transform="translate(-17478.619 -13586.798)" fill="#9ba5f2"/>
            <path id="Path_170318" data-name="Path 170318" d="M17885.4,13728.642l1.906,1.572,7.676-1.141.574-.673Z" transform="translate(-17848.051 -13586.798)" fill="#9ba5f2"/>
            <path id="Path_170319" data-name="Path 170319" d="M18433.762,13728.642l-1.908,1.572-7.68-1.141-.572-.673Z" transform="translate(-18369.221 -13586.798)" fill="#9ba5f2"/>
            <path id="Path_170320" data-name="Path 170320" d="M18805.1,13728.642l1.908,1.572,7.684-1.141.568-.673Z" transform="translate(-18738.652 -13586.798)" fill="#9ba5f2"/>
            <path id="Path_170321" data-name="Path 170321" d="M18166.3,14156.225h1.1V14154h-1.1Z" transform="translate(-18120.063 -13998.934)" fill="#9ba5f2"/>
            <path id="Path_170322" data-name="Path 170322" d="M18429.2,14156.225h1.094V14154h-1.094Z" transform="translate(-18374.645 -13998.934)" fill="#9ba5f2"/>
            <path id="Path_170323" data-name="Path 170323" d="M17746.758,13697.2c-.152-.909-1.363-.946-2.789-.971v-4.054a1.422,1.422,0,0,0-1.416-1.415h-.842a1.422,1.422,0,0,0-1.418,1.415v3.515a17.085,17.085,0,0,1-1.643-.59,128.727,128.727,0,0,0-22.133,0s-.707.3-1.646.59v-3.515a1.42,1.42,0,0,0-1.414-1.415h-.844a1.419,1.419,0,0,0-1.414,1.415v4.054c-1.428.024-2.639.062-2.791.971-.191,1.146,1.051,1.384,1.051,1.384h3.432s2.746,1.271,5.242,2.43c-1.121,2.337-2.514,6.057-3.24,8.053a1.861,1.861,0,1,0,1.246.6c1.111-2.091,3.381-6.952,3.5-7.245a1.74,1.74,0,0,1,.5-.472l1.391.644a11.223,11.223,0,0,0,2.908,1.051h2.166v.584h-1.637a.639.639,0,0,0-.637.635v3.469a.639.639,0,0,0,.637.636h5.242a.635.635,0,0,0,.631-.636v-3.469a.635.635,0,0,0-.631-.635h-1.639v-.584h2.162a11.236,11.236,0,0,0,2.912-1.051l1.389-.644a1.756,1.756,0,0,1,.5.472c.117.293,2.381,5.154,3.494,7.245a1.863,1.863,0,1,0,1.246-.6c-.725-2-2.121-5.716-3.24-8.053,2.5-1.158,5.242-2.43,5.242-2.43h3.436S17746.947,13698.346,17746.758,13697.2Zm-17.223,9.317h0a1.952,1.952,0,1,1-1.951-1.952A1.952,1.952,0,0,1,17729.535,13706.517Zm-12.863-10.3h0a107.042,107.042,0,0,1,21.82,0S17724.744,13695.967,17716.672,13696.219Z" transform="translate(-17676.637 -13550.349)" fill="#9ba5f2"/>
            <path id="Path_170324" data-name="Path 170324" d="M18278.424,14151.39a.617.617,0,0,1-.369-1.116,1.164,1.164,0,0,0-.273-.033,1.218,1.218,0,1,0,1.219,1.219,1.115,1.115,0,0,0-.061-.354A.6.6,0,0,1,18278.424,14151.39Z" transform="translate(-18226.836 -13995.294)" fill="#9ba5f2"/>
            <line id="Line_163" data-name="Line 163" x2="24.631" y2="14.677" transform="translate(81.541 170.487)" fill="none" stroke="#000" stroke-linecap="round" stroke-linejoin="round" stroke-width="2"/>
            <line id="Line_164" data-name="Line 164" x1="15.479" y2="15.473" transform="translate(86.206 169.776)" fill="none" stroke="#000" stroke-linecap="round" stroke-linejoin="round" stroke-width="2"/>
            <path id="Path_170325" data-name="Path 170325" d="M17953.391,13773.859c9.051,4.475,12.8,13.41,8.387,19.963s-15.338,8.234-24.391,3.762-12.807-13.412-8.389-19.965S17944.336,13769.387,17953.391,13773.859Z" transform="translate(-17851.836 -13608.017)" fill="none" stroke="#000" stroke-linecap="round" stroke-linejoin="round" stroke-width="2"/>
          </g>
        </g>
      </g>
    </g>
  </g>
</svg>
