<svg xmlns="http://www.w3.org/2000/svg" width="15.375" height="18.12" viewBox="0 0 15.375 18.12">
  <g id="Layer_x0020_1" transform="translate(-2065.689 -2567.691)">
    <path id="Path_70161" data-name="Path 70161" d="M3004.656,2572.809a3.613,3.613,0,0,1,4.938-3.544,3.544,3.544,0,0,1,1.527,1.173,4.183,4.183,0,0,1,.347.563,3.6,3.6,0,1,1-6.813,1.809Zm3.186-5.1a4.758,4.758,0,0,0-1.9.558,5.738,5.738,0,0,0-1.071.766l-.3.313a4.708,4.708,0,0,0-.917,1.536,4.932,4.932,0,0,0,.257,4.039,5.444,5.444,0,0,0,.771,1.08c.051.055.091.085.155.154a6.076,6.076,0,0,0,.5.412,4.787,4.787,0,0,0,1.2.655,4.9,4.9,0,0,0,2.149.292,5.16,5.16,0,0,0,1.9-.557,5.381,5.381,0,0,0,1.067-.769,6,6,0,0,0,.572-.646,4.951,4.951,0,0,0,.653-1.2,4.855,4.855,0,0,0,.3-2.138,5.059,5.059,0,0,0-1.645-3.278A4.9,4.9,0,0,0,3007.842,2567.712Z" transform="translate(-935.933)" fill-rule="evenodd"/>
    <path id="Path_70162" data-name="Path 70162" d="M6524.408,8725.478c0,.041.019.04.079.1.037.037.062.063.1.1l.207.194.2.2.215.2.62.6c.073.069.132.144.206.21.216.194.163.252.1.6-.039.231-.08.466-.119.7-.043.249-.231,1.23-.24,1.383l1.1-.581a10.381,10.381,0,0,1,1.13-.563c.228-.017,2.058,1.081,2.274,1.141-.064-.542-.257-1.457-.361-2.077-.054-.323-.1-.421.112-.606l.82-.8c.067-.065.127-.142.2-.2a6.512,6.512,0,0,0,.6-.6c-.289-.043-2.148-.273-2.364-.353-.166-.062-.147-.028-.221-.181l-.771-1.56c-.081-.166-.165-.361-.264-.521a.078.078,0,0,0-.021.022l-1.018,2.052c-.117.236-.244.2-.53.244Z" transform="translate(-4450.595 -6143.955)" fill-rule="evenodd"/>
    <path id="Path_70163" data-name="Path 70163" d="M2065.689,8585.85h1.337a5.2,5.2,0,0,1,1.231-3.218,5.148,5.148,0,0,1,1.8-1.392,5.326,5.326,0,0,1,2.069-.494v-1.328a6.785,6.785,0,0,0-2.6.613c-.187.094-.362.17-.53.271a7.078,7.078,0,0,0-.94.664l-.216.186c-.041.038-.06.064-.1.1s-.076.063-.113.1a2.811,2.811,0,0,0-.19.212c-.033.04-.063.063-.1.1l-.442.561A6.8,6.8,0,0,0,2065.689,8585.85Z" transform="translate(0 -6000.773)" fill-rule="evenodd"/>
  </g>
</svg>
