<svg xmlns="http://www.w3.org/2000/svg" width="20.852" height="19.226" viewBox="0 0 20.852 19.226">
  <path id="Path_70165" data-name="Path 70165" d="M2509.421,4081.213l3.663,0-.406.86-2.858,0Zm.012-1.206c.007-.055.824-1.8.882-1.884l1.869,0c.036.041.871,1.8.89,1.882Zm4.025-2.036c.223-.063,2.816-.528,3.146-.592a11.359,11.359,0,0,1,1.823-.049c.269,0,1.7-.018,1.845.008v.733a7.144,7.144,0,0,1-.734.231c-.527.162-5.01,1.545-5.185,1.573Zm-11.226-.641c.625,0,1.25,0,1.875,0a10.742,10.742,0,0,1,1.8.051l1.577.295c.514.1,1.058.182,1.565.3l-.906,1.909-5.912-1.8Zm7.184-.526c.012-.085.345-.8.41-.933h2.85c.069.147.389.834.416.942a4.143,4.143,0,0,1-.872.1A15.069,15.069,0,0,1,2509.416,4076.8Zm8.007-2.193,1.377,0v1.493c-.028.029.052.027-.16.025h-.176c-.231,0-.914.014-1.052-.006a6.5,6.5,0,0,1-.009-.77A4.454,4.454,0,0,1,2517.423,4074.611Zm-12.347,0c.021.027.021.021.022.093,0,.267.009,1.332-.01,1.424-.138.02-.821.006-1.052.006h-.176c-.156,0-.135.015-.16-.025v-1.5Zm6.845,8.668,1.533-.013.2-.413.661.376c1.066.634,2.256,1.3,3.341,1.932.123.071,1.246.736,1.345.772l0,3.088h-.721v1.2h2.65v-1.2l-.719-.006-.005-3.769c-.091-.066-.253-.15-.365-.215-1.624-.942-3.275-1.915-4.9-2.839-.241-.137-.522-.324-.764-.436a2.794,2.794,0,0,1,.19-.434c.125-.26.045-.2.342-.294l4.839-1.474c.518-.157,1.464-.47,1.933-.588v-2.831l-1.48-.015,0-2.715-1.286,0v-1.2h2.968V4071h-7.14v1.2l2.944.006c.044.027.024-.046.036.066.016.142-.008,1.124-.012,1.144l-1.3.009,0,2.8-1.887.359-.863-1.912-4.415,0-.856,1.909-1.89-.348,0-2.805-1.3-.013-.011-1.157c.017-.08-.017-.03.035-.049h2.944v-1.2l-7.138-.006,0,1.2h2.962l.005,1.2c-.329.012-.676,0-1.007,0-.285,0-.292-.072-.29.186.006.817.014,1.729,0,2.531h-1.461l-.006,2.843c.341.128,1.5.463,1.93.591.654.2,1.295.388,1.933.589l2.893.882c.285.089.235.024.352.283a2.763,2.763,0,0,1,.2.452c-.124.043-5.195,3.009-5.642,3.266-.118.068-.283.153-.375.221v3.768l-.724,0v1.2l2.647,0,0-1.2h-.715l-.007-3.088c.106-.037,1.208-.692,1.336-.765.444-.256.88-.516,1.328-.771l2.671-1.544a2.674,2.674,0,0,0,.211.426Z" transform="translate(-2500.823 -4071)" fill-rule="evenodd"/>
</svg>
