<svg xmlns="http://www.w3.org/2000/svg" width="47.095" height="67.2" viewBox="0 0 47.095 67.2">
  <g id="Layer_x0020_1" transform="translate(-1195.07 -779.961)">
    <g id="_2708236459232" transform="translate(1195.07 779.961)">
      <path id="Path_168155" data-name="Path 168155" d="M1212.006,831.082c0-.783,2.569.213,2.569-.571v-2.854h8.467v2.854c0,.5,1.007.286,2.379.286v14.366h-13.415Zm.761-2.283c-1.366,0-2.759-.244-2.759.38v15.984h-12.844v-21.5h43.1v21.5h-12.844V829.369c0-.823-.6-.571-2.569-.571v-3.14h-12.083Zm2.473-11.7H1222c0,.883.107.452.179.962.037.26,0,.559.023.833.033.326.686,2.771-.012,2.771h-7.421c-.591,0-.231-.5-.193-.856.073-.687-.125-.615.112-1.318a.476.476,0,0,0,.068-.218,9.4,9.4,0,0,1,.079-1.443l.088-.292C1215,817.26,1214.92,817.1,1215.24,817.1Zm-2.949,4.567h-11.8c-.219,0-.285-.066-.285-.286v-4c0-.219.066-.285.285-.285h12.464c0,1.881-.155,1.051-.194,1.8a6.866,6.866,0,0,1-.022,1.025c-.08.388-.173.236-.166.88C1212.579,821.228,1212.7,821.663,1212.291,821.663Zm11.7-4c0-.385-.053-.571.285-.571h12.749c.219,0,.285.066.285.285v4c0,.219-.066.286-.285.286-1.872,0-11.521.146-12.558-.1a12.43,12.43,0,0,0-.192-2C1224.272,818.674,1223.993,818.418,1223.993,817.667Zm-8.753-3.044c0-.48.152-.5.189-.953a6.225,6.225,0,0,1,.047-1.095,1.668,1.668,0,0,0,.143-1c-.01-.779.066-.478.192-.95,1.645,0,3.317-.031,4.957-.01,1.087.014.476.8.682,1.792a2.024,2.024,0,0,1,.166,1.071c-.027,1.583.189.248.189,1.618h-6.565Zm7.992-4h11.988c0,5.143.348,4.48-1.141,4.472l-10.07-.016c-.26-.089-.1.084-.206-.175-.286-.115-.141.208-.2-.37-.01-.1.008-.458.01-.581a3.584,3.584,0,0,0-.082-1.154,10.759,10.759,0,0,1-.137-1.67C1223.308,810.775,1223.294,811.11,1223.232,810.627Zm-10.085,4.472h-10.941v-4.472h11.227c.418,0,.19.4.189.949a4.589,4.589,0,0,1-.013.655c-.072.4-.092.1-.163.5s.03.815-.067,1.265A5.1,5.1,0,0,0,1213.147,815.1Zm3.33-10.941c5.215,0,3.834-.221,4.147.9.088.315.1-.033.138.527.013.207-.016.46-.006.672.025.55.184.529.2,1.135a3.135,3.135,0,0,0,.091,1.241h-5.137a4.627,4.627,0,0,0,.093-1.144,3.838,3.838,0,0,1,.25-.987c.083-.385,0-.792.048-1.189A6.118,6.118,0,0,0,1216.477,804.157Zm6.089,1.142v-1.142h9.99v4.471h-9.324c-.38,0-.269-.312-.289-.662-.04-.672-.148-.2-.191-.856-.019-.3.032-.645-.006-.946C1222.7,805.8,1222.566,805.748,1222.566,805.3ZM1214,808.153v.476h-8.848c-.219,0-.285-.066-.285-.285v-4.186h9.324c.661,0,0,.875,0,2.09A8.8,8.8,0,0,1,1214,808.153Zm3.14-9.99v-.38h2.759v1.427c0,.541.2.585.193,1.329-.014,1.58.188.6.188,1.716a21.073,21.073,0,0,1-3.615-.1c0-1,.193.038.187-2C1216.852,799.282,1217.143,799.045,1217.143,798.163Zm4.567-.38h8.468v4.376c-.979.228-6.381.1-7.8.1-.013-.581-.175-.372-.192-1.045a3.777,3.777,0,0,0-.157-1.175c-.268-.95-.015-1.16-.18-1.723C1221.751,797.987,1221.726,798.367,1221.71,797.783Zm-7.04,4.472h-7.231a27.573,27.573,0,0,1-.1-4.187c0-.219.066-.285.286-.285h7.611a10.642,10.642,0,0,0-.184,1.623,1.779,1.779,0,0,1-.019.266l-.163.5a1.8,1.8,0,0,0-.02.266c-.006.216.017.46.012.677C1214.85,801.8,1214.67,801.578,1214.67,802.255Zm2.854-7.992c0-.471.213.224.189-1.143-.022-1.266.191-.291.191-1.807h1.142c0,1.7.1.467.188,1.334.024.234-.011.5.014.747a7.57,7.57,0,0,1,.274,2.39h-2Zm-2,.856v.666h-6.184v-4.472h6.565a2.619,2.619,0,0,1-.15,1.276,4.2,4.2,0,0,0-.04.911C1215.729,795.131,1215.526,794.579,1215.526,795.119Zm5.518-3.806h7.041v4.472h-6.565a4.3,4.3,0,0,0-.167-1.736c-.147-.842.187-.273-.208-1.791A3.325,3.325,0,0,1,1221.044,791.313Zm3.425-2h-12.178v-5.328h2.093a30.064,30.064,0,0,1,.1,4.377h7.992c.47,0,.285-1.278.285-2.188,0-2.567-.4-2.188,2-2.188v5.043C1224.755,789.249,1224.688,789.315,1224.469,789.315Zm-3.806-2.759h-4.186v-2.569a31.19,31.19,0,0,1,4.471.1C1220.949,784.959,1221.138,786.556,1220.663,786.556Zm-10.465-6.184v8.943h-2.664v6.47h-2.093v6.184c0,.433-.675.289-1.141.286a5.374,5.374,0,0,0-1.427.095v6.279H1200.4a61.841,61.841,0,0,1-.1,6.47h-2v6.279c0,.367-.3.3-.658.294-.32,0-.639-.008-.959-.008-.846,0-1.618-.169-1.618.286v24.927c0,.219.066.285.286.285h46.524c.219,0,.286-.066.286-.285V821.949c0-.219-.066-.286-.286-.286h-2.664a63.512,63.512,0,0,0-.1-6.565h-1.9v-5.9c0-.831-.63-.571-2.664-.571v-5.994c0-.959-2.569.2-2.569-.761v-6.089h-1.9V789.6c0-.58-1.922-.166-2.959-.276-.333-.035-.345-.048-.381-.381l.01-7.526c0-1.647.357-1.427-1.713-1.427-.476,0-.285.811-.285,2.093h-1.713c-.759,0,.188-2.093-.571-2.093-1.9,0-1.522-.423-1.522,2.093h-4.471c0-2.541.416-2.093-1.713-2.093-.476,0-.286.811-.286,2.093h-2.188c0-2.541.416-2.093-1.713-2.093a.366.366,0,0,0-.381.381Z" transform="translate(-1195.07 -779.961)" fill="#8b98b4" fill-rule="evenodd"/>
      <path id="Path_168156" data-name="Path 168156" d="M2853.03,2854.707v9.895a4.822,4.822,0,0,0,2,0v-9.895A4.262,4.262,0,0,0,2853.03,2854.707Z" transform="translate(-2812.881 -2804.347)" fill="#8b98b4" fill-rule="evenodd"/>
      <path id="Path_168157" data-name="Path 168157" d="M2609.45,2854.509v9.324c0,.524.7.381,1.427.381.794,0,.571-.677.571-2v-7.992C2611.066,2854.135,2609.45,2853.865,2609.45,2854.509Z" transform="translate(-2575.199 -2803.864)" fill="#8b98b4" fill-rule="evenodd"/>
      <path id="Path_168158" data-name="Path 168158" d="M1666.53,2884.594c0,.431.488.285,1.522.285a1.376,1.376,0,0,0,.476-.1v-9.514h-2Z" transform="translate(-1655.113 -2824.53)" fill="#8b98b4" fill-rule="evenodd"/>
      <path id="Path_168159" data-name="Path 168159" d="M1415.08,2883.362c0,.423.444.286,1.427.286a.366.366,0,0,0,.38-.381v-8.943c0-.454-.637-.286-1.808-.286Z" transform="translate(-1409.752 -2823.297)" fill="#8b98b4" fill-rule="evenodd"/>
    </g>
  </g>
</svg>
