<svg xmlns="http://www.w3.org/2000/svg" width="10.816" height="17.394" viewBox="0 0 10.816 17.394">
  <g id="Group_37712" data-name="Group 37712" transform="translate(-210.4 -36.978)">
    <g id="Group_25988" data-name="Group 25988" transform="translate(212.563 36.978)">
      <path id="Path_168041" data-name="Path 168041" d="M356.774,66a2.887,2.887,0,0,1-2.887,2.887h0A2.887,2.887,0,0,1,351,66V59.887A2.887,2.887,0,0,1,353.887,57h0a2.887,2.887,0,0,1,2.887,2.887Z" transform="translate(-350.642 -56.641)"/>
      <g id="Group_25987" data-name="Group 25987" transform="translate(0)">
        <path id="Path_168042" data-name="Path 168042" d="M336.828,46.341c0,.091,0,.183-.013.274,0,.032-.03.154-.005.052-.013.047-.016.1-.025.145a2.828,2.828,0,0,1-.142.484c0,.007-.005.014-.009.022-.014.036-.013.029.009-.02a.154.154,0,0,1-.02.043c-.018.039-.036.079-.056.118q-.062.121-.134.237c-.041.066-.088.131-.133.194s.039-.047.005-.007l-.038.045c-.031.036-.061.072-.093.106-.052.057-.108.113-.165.167-.032.029-.063.057-.1.086l-.045.038-.036.029c.039-.029.047-.036.027-.02a3.658,3.658,0,0,1-.429.269c-.036.018-.07.036-.106.052a.229.229,0,0,1-.065.029c.005,0,.081-.032.02-.009-.082.032-.165.061-.249.086s-.172.047-.258.065l-.12.022c-.066.011.016,0,.022,0a.354.354,0,0,1-.1.011,2.856,2.856,0,0,1-.525,0,.476.476,0,0,1-.124-.013l.047.005-.048-.007-.061-.011a2.374,2.374,0,0,1-.271-.065c-.077-.022-.152-.048-.228-.075a.509.509,0,0,0-.056-.022c-.05-.016.082.038.009,0-.043-.02-.086-.039-.129-.061a3.018,3.018,0,0,1-.43-.265.04.04,0,0,1-.009-.007l.016.013c-.014,0-.043-.036-.056-.045-.031-.025-.059-.05-.088-.077-.065-.057-.126-.118-.185-.181-.027-.029-.052-.057-.079-.088s-.072-.066-.075-.091l.027.036-.029-.038-.027-.038c-.027-.038-.054-.077-.079-.117-.047-.074-.09-.147-.131-.224-.018-.036-.036-.07-.052-.106-.007-.014-.013-.029-.02-.043s-.013-.029-.02-.043c.02.048.023.056.009.02a3.018,3.018,0,0,1-.145-.484c-.009-.039-.016-.081-.021-.12,0-.009,0-.016,0-.025-.005-.039-.005-.032,0,.022a.228.228,0,0,1-.007-.061,2.53,2.53,0,0,1-.016-.287V40.195c0-.084.005-.167.013-.249,0-.025.005-.048.007-.074.005-.05-.013,0,0,.022-.013-.025.02-.113.025-.145a3.173,3.173,0,0,1,.151-.507c.014-.036-.007-.025-.009.02a.229.229,0,0,1,.029-.065c.016-.036.034-.072.052-.106q.059-.116.129-.226c.041-.066.088-.131.133-.194s-.052.063,0,0l.038-.045c.03-.036.061-.072.093-.106.056-.061.113-.118.174-.174.029-.027.057-.052.088-.077l.045-.038c.07-.059-.047.034.011-.009a3.281,3.281,0,0,1,.42-.262c.039-.02.077-.039.118-.057a.175.175,0,0,1,.054-.023l-.041.018c.014-.005.029-.013.045-.018a2.541,2.541,0,0,1,.249-.084c.077-.022.156-.041.235-.057l.12-.022c.086-.014-.084.009,0,0,.025,0,.048-.005.073-.007a2.823,2.823,0,0,1,.551,0c.032,0,.154.03.052.005.039.011.081.013.12.02a2.607,2.607,0,0,1,.26.063c.077.022.152.048.228.075.014.005.057.014.066.027l-.041-.018.032.014c.043.02.086.039.129.061a3.241,3.241,0,0,1,.43.267c.065.047-.047-.039-.007-.005l.045.038c.03.025.059.05.088.077.065.057.126.118.185.181.029.032.057.063.086.1l.038.045c.005.005.009.013.014.018.023.03.02.025-.013-.018a.421.421,0,0,1,.07.1c.027.038.054.077.079.118q.062.1.118.2c.018.036.036.07.052.106s.02.043.029.065c.034.075-.029-.075,0,0a3.119,3.119,0,0,1,.151.507l.022.12c.011.066,0-.016,0-.022a.251.251,0,0,1,.009.074q.013.137.016.274v6.143a.359.359,0,1,0,.717,0v-5.8a5.885,5.885,0,0,0-.039-.814,3.209,3.209,0,0,0-1.038-1.922,3.239,3.239,0,0,0-4.262-.061,3.193,3.193,0,0,0-1.094,1.886,5.133,5.133,0,0,0-.056.877v4.079c0,.585,0,1.167,0,1.752a3.293,3.293,0,0,0,.724,2.042,3.213,3.213,0,0,0,1.858,1.137,3.242,3.242,0,0,0,3.713-2.073,3.211,3.211,0,0,0,.194-1.1.359.359,0,0,0-.717,0Z" transform="translate(-331.056 -36.978)"/>
      </g>
    </g>
    <g id="Group_25990" data-name="Group 25990" transform="translate(210.4 45.573)">
      <g id="Group_25989" data-name="Group 25989" transform="translate(0)">
        <path id="Path_168043" data-name="Path 168043" d="M210.4,517.08a5.384,5.384,0,0,0,.965,3.079,6.251,6.251,0,0,0,.561.687,5.749,5.749,0,0,0,.662.574,5.389,5.389,0,0,0,7.351-.853,6.042,6.042,0,0,0,.506-.7,5.76,5.76,0,0,0,.393-.805,5.331,5.331,0,0,0,.364-1.6c.011-.126.014-.251.014-.377a.717.717,0,1,0-1.434,0,4.811,4.811,0,0,1-.041.622c.009-.063.018-.127.025-.19a4.72,4.72,0,0,1-.33,1.209c.023-.057.048-.115.072-.172a4.774,4.774,0,0,1-.608,1.036l.113-.145a4.823,4.823,0,0,1-.845.844l.145-.113a4.781,4.781,0,0,1-1.036.608l.172-.072a4.718,4.718,0,0,1-1.208.33c.063-.009.127-.018.19-.025a4.814,4.814,0,0,1-1.244,0c.063.009.127.018.19.025a4.719,4.719,0,0,1-1.209-.33l.172.072a4.78,4.78,0,0,1-1.036-.608l.145.113a4.824,4.824,0,0,1-.845-.844l.113.145a4.774,4.774,0,0,1-.608-1.036c.023.057.048.115.072.172a4.719,4.719,0,0,1-.33-1.209c.009.063.018.127.025.19a4.816,4.816,0,0,1-.041-.622.717.717,0,0,0-1.434,0Z" transform="translate(-210.4 -516.364)"/>
      </g>
    </g>
    <g id="Group_25992" data-name="Group 25992" transform="translate(215.091 50.262)">
      <g id="Group_25991" data-name="Group 25991">
        <path id="Path_168044" data-name="Path 168044" d="M473.434,781.255v-2.673a.717.717,0,0,0-1.434,0v2.673a.717.717,0,1,0,1.434,0Z" transform="translate(-472 -777.864)"/>
      </g>
    </g>
    <g id="Group_25994" data-name="Group 25994" transform="translate(212.09 52.936)">
      <g id="Group_25993" data-name="Group 25993" transform="translate(0)">
        <path id="Path_168045" data-name="Path 168045" d="M305.382,928.435h6a.717.717,0,1,0,0-1.434h-6a.717.717,0,0,0,0,1.434Z" transform="translate(-304.664 -927)"/>
      </g>
    </g>
  </g>
</svg>
